<svg width="29" height="23" viewBox="0 0 29 23" fill="none" xmlns="http://www.w3.org/2000/svg">
<path d="M4.35159 11.91H3.4901C3.38258 11.91 3.27947 11.8673 3.20344 11.7913C3.12741 11.7152 3.0847 11.6121 3.0847 11.5046C3.0847 11.3971 3.12741 11.294 3.20344 11.2179C3.27947 11.1419 3.38258 11.0992 3.4901 11.0992H4.35159C4.45911 11.0992 4.56223 11.1419 4.63826 11.2179C4.71428 11.294 4.757 11.3971 4.757 11.5046C4.757 11.6121 4.71428 11.7152 4.63826 11.7913C4.56223 11.8673 4.45911 11.91 4.35159 11.91ZM6.7147 11.91H5.85281C5.74529 11.91 5.64217 11.8673 5.56614 11.7913C5.49011 11.7152 5.4474 11.6121 5.4474 11.5046C5.4474 11.3971 5.49011 11.294 5.56614 11.2179C5.64217 11.1419 5.74529 11.0992 5.85281 11.0992H6.7147C6.82222 11.0992 6.92534 11.1419 7.00136 11.2179C7.07739 11.294 7.1201 11.3971 7.1201 11.5046C7.1201 11.6121 7.07739 11.7152 7.00136 11.7913C6.92534 11.8673 6.82222 11.91 6.7147 11.91ZM9.077 11.91H8.21551C8.10799 11.91 8.00487 11.8673 7.92884 11.7913C7.85282 11.7152 7.8101 11.6121 7.8101 11.5046C7.8101 11.3971 7.85282 11.294 7.92884 11.2179C8.00487 11.1419 8.10799 11.0992 8.21551 11.0992H9.077C9.18452 11.0992 9.28763 11.1419 9.36366 11.2179C9.43969 11.294 9.4824 11.3971 9.4824 11.5046C9.4824 11.6121 9.43969 11.7152 9.36366 11.7913C9.28763 11.8673 9.18452 11.91 9.077 11.91ZM4.35159 13.8126H3.4901C3.38258 13.8126 3.27947 13.7699 3.20344 13.6938C3.12741 13.6178 3.0847 13.5147 3.0847 13.4072C3.0847 13.2996 3.12741 13.1965 3.20344 13.1205C3.27947 13.0445 3.38258 13.0018 3.4901 13.0018H4.35159C4.45911 13.0018 4.56223 13.0445 4.63826 13.1205C4.71428 13.1965 4.757 13.2996 4.757 13.4072C4.757 13.5147 4.71428 13.6178 4.63826 13.6938C4.56223 13.7699 4.45911 13.8126 4.35159 13.8126ZM6.7147 13.8126H5.85281C5.74529 13.8126 5.64217 13.7699 5.56614 13.6938C5.49011 13.6178 5.4474 13.5147 5.4474 13.4072C5.4474 13.2996 5.49011 13.1965 5.56614 13.1205C5.64217 13.0445 5.74529 13.0018 5.85281 13.0018H6.7147C6.82222 13.0018 6.92534 13.0445 7.00136 13.1205C7.07739 13.1965 7.1201 13.2996 7.1201 13.4072C7.1201 13.5147 7.07739 13.6178 7.00136 13.6938C6.92534 13.7699 6.82222 13.8126 6.7147 13.8126ZM9.077 13.8126H8.21551C8.10799 13.8126 8.00487 13.7699 7.92884 13.6938C7.85282 13.6178 7.8101 13.5147 7.8101 13.4072C7.8101 13.2996 7.85282 13.1965 7.92884 13.1205C8.00487 13.0445 8.10799 13.0018 8.21551 13.0018H9.077C9.18452 13.0018 9.28763 13.0445 9.36366 13.1205C9.43969 13.1965 9.4824 13.2996 9.4824 13.4072C9.4824 13.5147 9.43969 13.6178 9.36366 13.6938C9.28763 13.7699 9.18452 13.8126 9.077 13.8126ZM4.35159 15.7147H3.4901C3.38258 15.7147 3.27947 15.672 3.20344 15.596C3.12741 15.52 3.0847 15.4168 3.0847 15.3093C3.0847 15.2018 3.12741 15.0987 3.20344 15.0227C3.27947 14.9466 3.38258 14.9039 3.4901 14.9039H4.35159C4.45911 14.9039 4.56223 14.9466 4.63826 15.0227C4.71428 15.0987 4.757 15.2018 4.757 15.3093C4.757 15.4168 4.71428 15.52 4.63826 15.596C4.56223 15.672 4.45911 15.7147 4.35159 15.7147ZM6.7147 15.7147H5.85281C5.74529 15.7147 5.64217 15.672 5.56614 15.596C5.49011 15.52 5.4474 15.4168 5.4474 15.3093C5.4474 15.2018 5.49011 15.0987 5.56614 15.0227C5.64217 14.9466 5.74529 14.9039 5.85281 14.9039H6.7147C6.82222 14.9039 6.92534 14.9466 7.00136 15.0227C7.07739 15.0987 7.1201 15.2018 7.1201 15.3093C7.1201 15.4168 7.07739 15.52 7.00136 15.596C6.92534 15.672 6.82222 15.7147 6.7147 15.7147ZM9.077 15.7147H8.21551C8.10799 15.7147 8.00487 15.672 7.92884 15.596C7.85282 15.52 7.8101 15.4168 7.8101 15.3093C7.8101 15.2018 7.85282 15.0987 7.92884 15.0227C8.00487 14.9466 8.10799 14.9039 8.21551 14.9039H9.077C9.18452 14.9039 9.28763 14.9466 9.36366 15.0227C9.43969 15.0987 9.4824 15.2018 9.4824 15.3093C9.4824 15.4168 9.43969 15.52 9.36366 15.596C9.28763 15.672 9.18452 15.7147 9.077 15.7147ZM4.35159 17.6173H3.4901C3.38258 17.6173 3.27947 17.5746 3.20344 17.4986C3.12741 17.4225 3.0847 17.3194 3.0847 17.2119C3.0847 17.1044 3.12741 17.0013 3.20344 16.9252C3.27947 16.8492 3.38258 16.8065 3.4901 16.8065H4.35159C4.45911 16.8065 4.56223 16.8492 4.63826 16.9252C4.71428 17.0013 4.757 17.1044 4.757 17.2119C4.757 17.3194 4.71428 17.4225 4.63826 17.4986C4.56223 17.5746 4.45911 17.6173 4.35159 17.6173ZM6.7147 17.6173H5.85281C5.74529 17.6173 5.64217 17.5746 5.56614 17.4986C5.49011 17.4225 5.4474 17.3194 5.4474 17.2119C5.4474 17.1044 5.49011 17.0013 5.56614 16.9252C5.64217 16.8492 5.74529 16.8065 5.85281 16.8065H6.7147C6.82222 16.8065 6.92534 16.8492 7.00136 16.9252C7.07739 17.0013 7.1201 17.1044 7.1201 17.2119C7.1201 17.3194 7.07739 17.4225 7.00136 17.4986C6.92534 17.5746 6.82222 17.6173 6.7147 17.6173ZM9.077 17.6173H8.21551C8.10799 17.6173 8.00487 17.5746 7.92884 17.4986C7.85282 17.4225 7.8101 17.3194 7.8101 17.2119C7.8101 17.1044 7.85282 17.0013 7.92884 16.9252C8.00487 16.8492 8.10799 16.8065 8.21551 16.8065H9.077C9.18452 16.8065 9.28763 16.8492 9.36366 16.9252C9.43969 17.0013 9.4824 17.1044 9.4824 17.2119C9.4824 17.3194 9.43969 17.4225 9.36366 17.4986C9.28763 17.5746 9.18452 17.6173 9.077 17.6173ZM4.35159 19.5199H3.4901C3.38258 19.5199 3.27947 19.4771 3.20344 19.4011C3.12741 19.3251 3.0847 19.222 3.0847 19.1145C3.0847 19.0069 3.12741 18.9038 3.20344 18.8278C3.27947 18.7518 3.38258 18.7091 3.4901 18.7091H4.35159C4.45911 18.7091 4.56223 18.7518 4.63826 18.8278C4.71428 18.9038 4.757 19.0069 4.757 19.1145C4.757 19.222 4.71428 19.3251 4.63826 19.4011C4.56223 19.4771 4.45911 19.5199 4.35159 19.5199ZM6.7147 19.5199H5.85281C5.74529 19.5199 5.64217 19.4771 5.56614 19.4011C5.49011 19.3251 5.4474 19.222 5.4474 19.1145C5.4474 19.0069 5.49011 18.9038 5.56614 18.8278C5.64217 18.7518 5.74529 18.7091 5.85281 18.7091H6.7147C6.82222 18.7091 6.92534 18.7518 7.00136 18.8278C7.07739 18.9038 7.1201 19.0069 7.1201 19.1145C7.1201 19.222 7.07739 19.3251 7.00136 19.4011C6.92534 19.4771 6.82222 19.5199 6.7147 19.5199ZM9.077 19.5199H8.21551C8.10799 19.5199 8.00487 19.4771 7.92884 19.4011C7.85282 19.3251 7.8101 19.222 7.8101 19.1145C7.8101 19.0069 7.85282 18.9038 7.92884 18.8278C8.00487 18.7518 8.10799 18.7091 8.21551 18.7091H9.077C9.18452 18.7091 9.28763 18.7518 9.36366 18.8278C9.43969 18.9038 9.4824 19.0069 9.4824 19.1145C9.4824 19.222 9.43969 19.3251 9.36366 19.4011C9.28763 19.4771 9.18452 19.5199 9.077 19.5199ZM4.35159 21.4224H3.4901C3.38258 21.4224 3.27947 21.3797 3.20344 21.3037C3.12741 21.2277 3.0847 21.1245 3.0847 21.017C3.0847 20.9095 3.12741 20.8064 3.20344 20.7304C3.27947 20.6543 3.38258 20.6116 3.4901 20.6116H4.35159C4.45911 20.6116 4.56223 20.6543 4.63826 20.7304C4.71428 20.8064 4.757 20.9095 4.757 21.017C4.757 21.1245 4.71428 21.2277 4.63826 21.3037C4.56223 21.3797 4.45911 21.4224 4.35159 21.4224ZM6.7147 21.4224H5.85281C5.74529 21.4224 5.64217 21.3797 5.56614 21.3037C5.49011 21.2277 5.4474 21.1245 5.4474 21.017C5.4474 20.9095 5.49011 20.8064 5.56614 20.7304C5.64217 20.6543 5.74529 20.6116 5.85281 20.6116H6.7147C6.82222 20.6116 6.92534 20.6543 7.00136 20.7304C7.07739 20.8064 7.1201 20.9095 7.1201 21.017C7.1201 21.1245 7.07739 21.2277 7.00136 21.3037C6.92534 21.3797 6.82222 21.4224 6.7147 21.4224ZM9.077 21.4224H8.21551C8.10799 21.4224 8.00487 21.3797 7.92884 21.3037C7.85282 21.2277 7.8101 21.1245 7.8101 21.017C7.8101 20.9095 7.85282 20.8064 7.92884 20.7304C8.00487 20.6543 8.10799 20.6116 8.21551 20.6116H9.077C9.18452 20.6116 9.28763 20.6543 9.36366 20.7304C9.43969 20.8064 9.4824 20.9095 9.4824 21.017C9.4824 21.1245 9.43969 21.2277 9.36366 21.3037C9.28763 21.3797 9.18452 21.4224 9.077 21.4224ZM13.7432 2.41297C13.6357 2.41297 13.5326 2.37026 13.4565 2.29423C13.3805 2.2182 13.3378 2.11509 13.3378 2.00757V1.24257C13.3378 1.13505 13.3805 1.03193 13.4565 0.955902C13.5326 0.879874 13.6357 0.837161 13.7432 0.837161C13.8507 0.837161 13.9538 0.879874 14.0299 0.955902C14.1059 1.03193 14.1486 1.13505 14.1486 1.24257V2.00757C14.1486 2.11509 14.1059 2.2182 14.0299 2.29423C13.9538 2.37026 13.8507 2.41297 13.7432 2.41297ZM11.8946 2.88446C11.787 2.88446 11.6839 2.84175 11.6079 2.76572C11.5319 2.68969 11.4892 2.58657 11.4892 2.47905V1.71405C11.4892 1.60653 11.5319 1.50342 11.6079 1.42739C11.6839 1.35136 11.787 1.30865 11.8946 1.30865C12.0021 1.30865 12.1052 1.35136 12.1812 1.42739C12.2573 1.50342 12.3 1.60653 12.3 1.71405V2.47905C12.3 2.58657 12.2573 2.68969 12.1812 2.76572C12.1052 2.84175 12.0021 2.88446 11.8946 2.88446ZM13.7432 5.46243C13.6357 5.46243 13.5326 5.41972 13.4565 5.34369C13.3805 5.26766 13.3378 5.16455 13.3378 5.05703V4.29203C13.3378 4.18451 13.3805 4.08139 13.4565 4.00536C13.5326 3.92933 13.6357 3.88662 13.7432 3.88662C13.8507 3.88662 13.9538 3.92933 14.0299 4.00536C14.1059 4.08139 14.1486 4.18451 14.1486 4.29203V5.05703C14.1486 5.16455 14.1059 5.26766 14.0299 5.34369C13.9538 5.41972 13.8507 5.46243 13.7432 5.46243ZM11.8946 5.93392C11.787 5.93392 11.6839 5.89121 11.6079 5.81518C11.5319 5.73915 11.4892 5.63603 11.4892 5.52851V4.76351C11.4892 4.65599 11.5319 4.55288 11.6079 4.47685C11.6839 4.40082 11.787 4.35811 11.8946 4.35811C12.0021 4.35811 12.1052 4.40082 12.1812 4.47685C12.2573 4.55288 12.3 4.65599 12.3 4.76351V5.52851C12.3 5.63603 12.2573 5.73915 12.1812 5.81518C12.1052 5.89121 12.0021 5.93392 11.8946 5.93392ZM13.7432 8.51351C13.6357 8.51351 13.5326 8.4708 13.4565 8.39477C13.3805 8.31874 13.3378 8.21563 13.3378 8.10811V7.34149C13.3378 7.23396 13.3805 7.13085 13.4565 7.05482C13.5326 6.97879 13.6357 6.93608 13.7432 6.93608C13.8507 6.93608 13.9538 6.97879 14.0299 7.05482C14.1059 7.13085 14.1486 7.23396 14.1486 7.34149V8.10811C14.1486 8.21563 14.1059 8.31874 14.0299 8.39477C13.9538 8.4708 13.8507 8.51351 13.7432 8.51351ZM11.8946 8.98338C11.787 8.98338 11.6839 8.94066 11.6079 8.86464C11.5319 8.78861 11.4892 8.68549 11.4892 8.57797V7.81297C11.4892 7.70545 11.5319 7.60234 11.6079 7.52631C11.6839 7.45028 11.787 7.40757 11.8946 7.40757C12.0021 7.40757 12.1052 7.45028 12.1812 7.52631C12.2573 7.60234 12.3 7.70545 12.3 7.81297V8.57797C12.3 8.68549 12.2573 8.78861 12.1812 8.86464C12.1052 8.94066 12.0021 8.98338 11.8946 8.98338ZM13.7432 11.5609C13.6357 11.5609 13.5326 11.5182 13.4565 11.4422C13.3805 11.3662 13.3378 11.2631 13.3378 11.1555V10.3905C13.3378 10.283 13.3805 10.1799 13.4565 10.1039C13.5326 10.0278 13.6357 9.98513 13.7432 9.98513C13.8507 9.98513 13.9538 10.0278 14.0299 10.1039C14.1059 10.1799 14.1486 10.283 14.1486 10.3905V11.1555C14.1486 11.2631 14.1059 11.3662 14.0299 11.4422C13.9538 11.5182 13.8507 11.5609 13.7432 11.5609ZM11.8946 12.0324C11.787 12.0324 11.6839 11.9897 11.6079 11.9137C11.5319 11.8377 11.4892 11.7345 11.4892 11.627V10.862C11.4892 10.7545 11.5319 10.6514 11.6079 10.5754C11.6839 10.4993 11.787 10.4566 11.8946 10.4566C12.0021 10.4566 12.1052 10.4993 12.1812 10.5754C12.2573 10.6514 12.3 10.7545 12.3 10.862V11.627C12.3 11.7345 12.2573 11.8377 12.1812 11.9137C12.1052 11.9897 12.0021 12.0324 11.8946 12.0324ZM13.7432 14.6104C13.6357 14.6104 13.5326 14.5677 13.4565 14.4917C13.3805 14.4156 13.3378 14.3125 13.3378 14.205V13.44C13.3378 13.3325 13.3805 13.2294 13.4565 13.1533C13.5326 13.0773 13.6357 13.0346 13.7432 13.0346C13.8507 13.0346 13.9538 13.0773 14.0299 13.1533C14.1059 13.2294 14.1486 13.3325 14.1486 13.44V14.205C14.1486 14.3125 14.1059 14.4156 14.0299 14.4917C13.9538 14.5677 13.8507 14.6104 13.7432 14.6104ZM11.8946 15.0811C11.787 15.0811 11.6839 15.0384 11.6079 14.9623C11.5319 14.8863 11.4892 14.7832 11.4892 14.6757V13.9115C11.4892 13.804 11.5319 13.7008 11.6079 13.6248C11.6839 13.5488 11.787 13.5061 11.8946 13.5061C12.0021 13.5061 12.1052 13.5488 12.1812 13.6248C12.2573 13.7008 12.3 13.804 12.3 13.9115V14.6757C12.3 14.7832 12.2573 14.8863 12.1812 14.9623C12.1052 15.0384 12.0021 15.0811 11.8946 15.0811ZM13.7432 17.6599C13.6357 17.6599 13.5326 17.6172 13.4565 17.5411C13.3805 17.4651 13.3378 17.362 13.3378 17.2545V16.4895C13.3378 16.3819 13.3805 16.2788 13.4565 16.2028C13.5326 16.1268 13.6357 16.0841 13.7432 16.0841C13.8507 16.0841 13.9538 16.1268 14.0299 16.2028C14.1059 16.2788 14.1486 16.3819 14.1486 16.4895V17.2545C14.1486 17.362 14.1059 17.4651 14.0299 17.5411C13.9538 17.6172 13.8507 17.6599 13.7432 17.6599ZM11.8946 18.1313C11.787 18.1313 11.6839 18.0886 11.6079 18.0126C11.5319 17.9366 11.4892 17.8335 11.4892 17.7259V16.9609C11.4892 16.8534 11.5319 16.7503 11.6079 16.6743C11.6839 16.5983 11.787 16.5555 11.8946 16.5555C12.0021 16.5555 12.1052 16.5983 12.1812 16.6743C12.2573 16.7503 12.3 16.8534 12.3 16.9609V17.7259C12.3 17.8335 12.2573 17.9366 12.1812 18.0126C12.1052 18.0886 12.0021 18.1313 11.8946 18.1313ZM13.7432 20.7089C13.6357 20.7089 13.5326 20.6662 13.4565 20.5902C13.3805 20.5141 13.3378 20.411 13.3378 20.3035V19.5405C13.3378 19.433 13.3805 19.3299 13.4565 19.2539C13.5326 19.1778 13.6357 19.1351 13.7432 19.1351C13.8507 19.1351 13.9538 19.1778 14.0299 19.2539C14.1059 19.3299 14.1486 19.433 14.1486 19.5405V20.3055C14.1481 20.4127 14.1051 20.5153 14.0292 20.5909C13.9532 20.6665 13.8504 20.7089 13.7432 20.7089ZM11.8946 21.1808C11.787 21.1808 11.6839 21.1381 11.6079 21.0621C11.5319 20.986 11.4892 20.8829 11.4892 20.7754V20.01C11.4892 19.9025 11.5319 19.7994 11.6079 19.7233C11.6839 19.6473 11.787 19.6046 11.8946 19.6046C12.0021 19.6046 12.1052 19.6473 12.1812 19.7233C12.2573 19.7994 12.3 19.9025 12.3 20.01V20.775C12.3 20.8283 12.2896 20.881 12.2692 20.9303C12.2489 20.9795 12.219 21.0242 12.1814 21.0619C12.1437 21.0996 12.099 21.1295 12.0498 21.1499C12.0006 21.1703 11.9478 21.1808 11.8946 21.1808ZM16.5405 2.02703C16.433 2.02703 16.3299 1.98431 16.2538 1.90829C16.1778 1.83226 16.1351 1.72914 16.1351 1.62162V0.857432C16.1351 0.749912 16.1778 0.646795 16.2538 0.570767C16.3299 0.494738 16.433 0.452026 16.5405 0.452026C16.648 0.452026 16.7511 0.494738 16.8272 0.570767C16.9032 0.646795 16.9459 0.749912 16.9459 0.857432V1.62162C16.9459 1.72914 16.9032 1.83226 16.8272 1.90829C16.7511 1.98431 16.648 2.02703 16.5405 2.02703ZM17.9096 2.54392C17.802 2.54392 17.6989 2.50121 17.6229 2.42518C17.5469 2.34915 17.5042 2.24603 17.5042 2.13851V1.37392C17.5042 1.2664 17.5469 1.16328 17.6229 1.08725C17.6989 1.01122 17.802 0.968512 17.9096 0.968512C18.0171 0.968512 18.1202 1.01122 18.1962 1.08725C18.2723 1.16328 18.315 1.2664 18.315 1.37392V2.13892C18.3149 2.24637 18.2721 2.34938 18.1961 2.42532C18.1201 2.50126 18.017 2.54392 17.9096 2.54392ZM19.2778 3.0604C19.1703 3.0604 19.0672 3.01769 18.9911 2.94166C18.9151 2.86564 18.8724 2.76252 18.8724 2.655V1.8904C18.8724 1.78288 18.9151 1.67977 18.9911 1.60374C19.0672 1.52771 19.1703 1.485 19.2778 1.485C19.3853 1.485 19.4884 1.52771 19.5645 1.60374C19.6405 1.67977 19.6832 1.78288 19.6832 1.8904V2.6554C19.6831 2.76285 19.6403 2.86587 19.5643 2.94181C19.4883 3.01775 19.3853 3.0604 19.2778 3.0604ZM16.5405 5.06757C16.433 5.06757 16.3299 5.02485 16.2538 4.94883C16.1778 4.8728 16.1351 4.76968 16.1351 4.66216V3.89595C16.1351 3.78842 16.1778 3.68531 16.2538 3.60928C16.3299 3.53325 16.433 3.49054 16.5405 3.49054C16.648 3.49054 16.7511 3.53325 16.8272 3.60928C16.9032 3.68531 16.9459 3.78842 16.9459 3.89595V4.66216C16.9459 4.76968 16.9032 4.8728 16.8272 4.94883C16.7511 5.02485 16.648 5.06757 16.5405 5.06757ZM17.9096 5.58243C17.802 5.58243 17.6989 5.53972 17.6229 5.46369C17.5469 5.38766 17.5042 5.28455 17.5042 5.17703V4.41243C17.5042 4.30491 17.5469 4.20179 17.6229 4.12577C17.6989 4.04974 17.802 4.00703 17.9096 4.00703C18.0171 4.00703 18.1202 4.04974 18.1962 4.12577C18.2723 4.20179 18.315 4.30491 18.315 4.41243V5.17703C18.315 5.28455 18.2723 5.38766 18.1962 5.46369C18.1202 5.53972 18.0171 5.58243 17.9096 5.58243ZM19.2778 6.09892C19.1703 6.09892 19.0672 6.05621 18.9911 5.98018C18.9151 5.90415 18.8724 5.80103 18.8724 5.69351V4.92892C18.8724 4.8214 18.9151 4.71828 18.9911 4.64225C19.0672 4.56622 19.1703 4.52351 19.2778 4.52351C19.3853 4.52351 19.4884 4.56622 19.5645 4.64225C19.6405 4.71828 19.6832 4.8214 19.6832 4.92892V5.69392C19.6831 5.80137 19.6403 5.90438 19.5643 5.98032C19.4883 6.05626 19.3853 6.09892 19.2778 6.09892ZM16.5405 8.10486C16.433 8.10486 16.3299 8.06215 16.2538 7.98612C16.1778 7.91009 16.1351 7.80698 16.1351 7.69946V6.93243C16.1351 6.82491 16.1778 6.72179 16.2538 6.64577C16.3299 6.56974 16.433 6.52703 16.5405 6.52703C16.648 6.52703 16.7511 6.56974 16.8272 6.64577C16.9032 6.72179 16.9459 6.82491 16.9459 6.93243V7.69743C16.9462 7.75084 16.9359 7.80377 16.9156 7.8532C16.8954 7.90262 16.8656 7.94755 16.8279 7.98541C16.7902 8.02327 16.7454 8.05331 16.6961 8.07381C16.6468 8.09431 16.5939 8.10486 16.5405 8.10486ZM17.9096 8.62135C17.802 8.62135 17.6989 8.57864 17.6229 8.50261C17.5469 8.42658 17.5042 8.32347 17.5042 8.21595V7.45094C17.5042 7.34342 17.5469 7.24031 17.6229 7.16428C17.6989 7.08825 17.802 7.04554 17.9096 7.04554C18.0171 7.04554 18.1202 7.08825 18.1962 7.16428C18.2723 7.24031 18.315 7.34342 18.315 7.45094V8.21595C18.315 8.32347 18.2723 8.42658 18.1962 8.50261C18.1202 8.57864 18.0171 8.62135 17.9096 8.62135ZM19.2778 9.13743C19.1703 9.13743 19.0672 9.09472 18.9911 9.01869C18.9151 8.94266 18.8724 8.83955 18.8724 8.73203V7.96743C18.8724 7.85991 18.9151 7.75679 18.9911 7.68077C19.0672 7.60474 19.1703 7.56203 19.2778 7.56203C19.3853 7.56203 19.4884 7.60474 19.5645 7.68077C19.6405 7.75679 19.6832 7.85991 19.6832 7.96743V8.73243C19.6831 8.83988 19.6403 8.94289 19.5643 9.01883C19.4883 9.09477 19.3853 9.13743 19.2778 9.13743ZM16.5405 11.1434C16.433 11.1434 16.3299 11.1007 16.2538 11.0246C16.1778 10.9486 16.1351 10.8455 16.1351 10.738V9.97297C16.1351 9.86545 16.1778 9.76233 16.2538 9.68631C16.3299 9.61028 16.433 9.56757 16.5405 9.56757C16.648 9.56757 16.7511 9.61028 16.8272 9.68631C16.9032 9.76233 16.9459 9.86545 16.9459 9.97297V10.738C16.9459 10.8455 16.9032 10.9486 16.8272 11.0246C16.7511 11.1007 16.648 11.1434 16.5405 11.1434ZM17.9096 11.6599C17.802 11.6599 17.6989 11.6172 17.6229 11.5411C17.5469 11.4651 17.5042 11.362 17.5042 11.2545V10.4895C17.5042 10.3819 17.5469 10.2788 17.6229 10.2028C17.6989 10.1268 17.802 10.0841 17.9096 10.0841C18.0171 10.0841 18.1202 10.1268 18.1962 10.2028C18.2723 10.2788 18.315 10.3819 18.315 10.4895V11.2545C18.315 11.362 18.2723 11.4651 18.1962 11.5411C18.1202 11.6172 18.0171 11.6599 17.9096 11.6599ZM19.2778 12.1764C19.1703 12.1764 19.0672 12.1336 18.9911 12.0576C18.9151 11.9816 18.8724 11.8785 18.8724 11.7709V11.0059C18.8724 10.8984 18.9151 10.7953 18.9911 10.7193C19.0672 10.6433 19.1703 10.6005 19.2778 10.6005C19.3853 10.6005 19.4884 10.6433 19.5645 10.7193C19.6405 10.7953 19.6832 10.8984 19.6832 11.0059V11.7709C19.6832 11.8785 19.6405 11.9816 19.5645 12.0576C19.4884 12.1336 19.3853 12.1764 19.2778 12.1764ZM16.5405 14.1819C16.433 14.1819 16.3299 14.1392 16.2538 14.0632C16.1778 13.9871 16.1351 13.884 16.1351 13.7765V13.0135C16.1351 12.906 16.1778 12.8029 16.2538 12.7268C16.3299 12.6508 16.433 12.6081 16.5405 12.6081C16.648 12.6081 16.7511 12.6508 16.8272 12.7268C16.9032 12.8029 16.9459 12.906 16.9459 13.0135V13.7785C16.9454 13.8857 16.9024 13.9883 16.8265 14.0639C16.7505 14.1395 16.6477 14.1819 16.5405 14.1819ZM17.9096 14.6984C17.802 14.6984 17.6989 14.6557 17.6229 14.5796C17.5469 14.5036 17.5042 14.4005 17.5042 14.293V13.528C17.5042 13.4205 17.5469 13.3173 17.6229 13.2413C17.6989 13.1653 17.802 13.1226 17.9096 13.1226C18.0171 13.1226 18.1202 13.1653 18.1962 13.2413C18.2723 13.3173 18.315 13.4205 18.315 13.528V14.293C18.315 14.4005 18.2723 14.5036 18.1962 14.5796C18.1202 14.6557 18.0171 14.6984 17.9096 14.6984ZM19.2778 15.2149C19.1703 15.2149 19.0672 15.1722 18.9911 15.0961C18.9151 15.0201 18.8724 14.917 18.8724 14.8095V14.0445C18.8724 13.9369 18.9151 13.8338 18.9911 13.7578C19.0672 13.6818 19.1703 13.6391 19.2778 13.6391C19.3853 13.6391 19.4884 13.6818 19.5645 13.7578C19.6405 13.8338 19.6832 13.9369 19.6832 14.0445V14.8095C19.6832 14.917 19.6405 15.0201 19.5645 15.0961C19.4884 15.1722 19.3853 15.2149 19.2778 15.2149ZM16.5405 17.2204C16.433 17.2204 16.3299 17.1777 16.2538 17.1017C16.1778 17.0256 16.1351 16.9225 16.1351 16.815V16.05C16.1351 15.9425 16.1778 15.8394 16.2538 15.7633C16.3299 15.6873 16.433 15.6446 16.5405 15.6446C16.648 15.6446 16.7511 15.6873 16.8272 15.7633C16.9032 15.8394 16.9459 15.9425 16.9459 16.05V16.815C16.9459 16.9225 16.9032 17.0256 16.8272 17.1017C16.7511 17.1777 16.648 17.2204 16.5405 17.2204ZM17.9096 17.7369C17.802 17.7369 17.6989 17.6942 17.6229 17.6182C17.5469 17.5421 17.5042 17.439 17.5042 17.3315V16.5665C17.5042 16.459 17.5469 16.3558 17.6229 16.2798C17.6989 16.2038 17.802 16.1611 17.9096 16.1611C18.0171 16.1611 18.1202 16.2038 18.1962 16.2798C18.2723 16.3558 18.315 16.459 18.315 16.5665V17.3315C18.315 17.439 18.2723 17.5421 18.1962 17.6182C18.1202 17.6942 18.0171 17.7369 17.9096 17.7369ZM19.2778 18.2534C19.1703 18.2534 19.0672 18.2107 18.9911 18.1346C18.9151 18.0586 18.8724 17.9555 18.8724 17.848V17.083C18.8724 16.9755 18.9151 16.8723 18.9911 16.7963C19.0672 16.7203 19.1703 16.6776 19.2778 16.6776C19.3853 16.6776 19.4884 16.7203 19.5645 16.7963C19.6405 16.8723 19.6832 16.9755 19.6832 17.083V17.848C19.6832 17.9555 19.6405 18.0586 19.5645 18.1346C19.4884 18.2107 19.3853 18.2534 19.2778 18.2534ZM16.5405 20.2589C16.433 20.2589 16.3299 20.2162 16.2538 20.1402C16.1778 20.0641 16.1351 19.961 16.1351 19.8535V19.0885C16.1351 18.981 16.1778 18.8779 16.2538 18.8018C16.3299 18.7258 16.433 18.6831 16.5405 18.6831C16.648 18.6831 16.7511 18.7258 16.8272 18.8018C16.9032 18.8779 16.9459 18.981 16.9459 19.0885V19.8535C16.9459 19.961 16.9032 20.0641 16.8272 20.1402C16.7511 20.2162 16.648 20.2589 16.5405 20.2589ZM17.9096 20.7754C17.802 20.7754 17.6989 20.7327 17.6229 20.6567C17.5469 20.5806 17.5042 20.4775 17.5042 20.37V19.605C17.5042 19.4975 17.5469 19.3944 17.6229 19.3183C17.6989 19.2423 17.802 19.1996 17.9096 19.1996C18.0171 19.1996 18.1202 19.2423 18.1962 19.3183C18.2723 19.3944 18.315 19.4975 18.315 19.605V20.37C18.315 20.4775 18.2723 20.5806 18.1962 20.6567C18.1202 20.7327 18.0171 20.7754 17.9096 20.7754ZM19.2778 21.2919C19.1703 21.2919 19.0672 21.2492 18.9911 21.1731C18.9151 21.0971 18.8724 20.994 18.8724 20.8865V20.1215C18.8724 20.014 18.9151 19.9108 18.9911 19.8348C19.0672 19.7588 19.1703 19.7161 19.2778 19.7161C19.3853 19.7161 19.4884 19.7588 19.5645 19.8348C19.6405 19.9108 19.6832 20.014 19.6832 20.1215V20.8865C19.6832 20.994 19.6405 21.0971 19.5645 21.1731C19.4884 21.2492 19.3853 21.2919 19.2778 21.2919ZM24.4054 10.6419C24.2979 10.6419 24.1947 10.5992 24.1187 10.5231C24.0427 10.4471 24 10.344 24 10.2365V9.82662C24 9.7191 24.0427 9.61598 24.1187 9.53996C24.1947 9.46393 24.2979 9.42122 24.4054 9.42122C24.5129 9.42122 24.616 9.46393 24.692 9.53996C24.7681 9.61598 24.8108 9.7191 24.8108 9.82662V10.2365C24.8108 10.344 24.7681 10.4471 24.692 10.5231C24.616 10.5992 24.5129 10.6419 24.4054 10.6419ZM25.7716 11.5005C25.6641 11.5005 25.561 11.4578 25.4849 11.3818C25.4089 11.3058 25.3662 11.2027 25.3662 11.0951V10.6853C25.3662 10.5777 25.4089 10.4746 25.4849 10.3986C25.561 10.3226 25.6641 10.2799 25.7716 10.2799C25.8791 10.2799 25.9822 10.3226 26.0583 10.3986C26.1343 10.4746 26.177 10.5777 26.177 10.6853V11.0951C26.177 11.2027 26.1343 11.3058 26.0583 11.3818C25.9822 11.4578 25.8791 11.5005 25.7716 11.5005ZM24.4054 12.6438C24.2979 12.6438 24.1947 12.6011 24.1187 12.525C24.0427 12.449 24 12.3459 24 12.2384V11.8289C24 11.7214 24.0427 11.6183 24.1187 11.5423C24.1947 11.4662 24.2979 11.4235 24.4054 11.4235C24.5129 11.4235 24.616 11.4662 24.692 11.5423C24.7681 11.6183 24.8108 11.7214 24.8108 11.8289V12.2388C24.8107 12.3462 24.7679 12.4492 24.6919 12.5252C24.6159 12.6011 24.5128 12.6438 24.4054 12.6438ZM25.7716 13.5024C25.6641 13.5024 25.561 13.4597 25.4849 13.3837C25.4089 13.3077 25.3662 13.2045 25.3662 13.097V12.6892C25.3662 12.5817 25.4089 12.4786 25.4849 12.4025C25.561 12.3265 25.6641 12.2838 25.7716 12.2838C25.8791 12.2838 25.9822 12.3265 26.0583 12.4025C26.1343 12.4786 26.177 12.5817 26.177 12.6892V13.0991C26.1765 13.2062 26.1335 13.3088 26.0575 13.3844C25.9816 13.46 25.8788 13.5024 25.7716 13.5024ZM24.4054 14.6461C24.2979 14.6461 24.1947 14.6034 24.1187 14.5273C24.0427 14.4513 24 14.3482 24 14.2407V13.8308C24 13.7233 24.0427 13.6202 24.1187 13.5441C24.1947 13.4681 24.2979 13.4254 24.4054 13.4254C24.5129 13.4254 24.616 13.4681 24.692 13.5441C24.7681 13.6202 24.8108 13.7233 24.8108 13.8308V14.2407C24.8108 14.3482 24.7681 14.4513 24.692 14.5273C24.616 14.6034 24.5129 14.6461 24.4054 14.6461ZM25.7716 15.5047C25.6641 15.5047 25.561 15.462 25.4849 15.386C25.4089 15.31 25.3662 15.2068 25.3662 15.0993V14.6895C25.3662 14.5819 25.4089 14.4788 25.4849 14.4028C25.561 14.3268 25.6641 14.2841 25.7716 14.2841C25.8791 14.2841 25.9822 14.3268 26.0583 14.4028C26.1343 14.4788 26.177 14.5819 26.177 14.6895V15.0993C26.177 15.2068 26.1343 15.31 26.0583 15.386C25.9822 15.462 25.8791 15.5047 25.7716 15.5047ZM24.4054 16.6484C24.2979 16.6484 24.1947 16.6057 24.1187 16.5296C24.0427 16.4536 24 16.3505 24 16.243V15.8331C24 15.7256 24.0427 15.6225 24.1187 15.5464C24.1947 15.4704 24.2979 15.4277 24.4054 15.4277C24.5129 15.4277 24.616 15.4704 24.692 15.5464C24.7681 15.6225 24.8108 15.7256 24.8108 15.8331V16.243C24.8108 16.3505 24.7681 16.4536 24.692 16.5296C24.616 16.6057 24.5129 16.6484 24.4054 16.6484ZM25.7716 17.5066C25.6641 17.5066 25.561 17.4639 25.4849 17.3879C25.4089 17.3119 25.3662 17.2087 25.3662 17.1012V16.6913C25.3662 16.5838 25.4089 16.4807 25.4849 16.4047C25.561 16.3287 25.6641 16.2859 25.7716 16.2859C25.8791 16.2859 25.9822 16.3287 26.0583 16.4047C26.1343 16.4807 26.177 16.5838 26.177 16.6913V17.1012C26.177 17.2087 26.1343 17.3119 26.0583 17.3879C25.9822 17.4639 25.8791 17.5066 25.7716 17.5066ZM24.4054 18.6486C24.2979 18.6486 24.1947 18.6059 24.1187 18.5299C24.0427 18.4539 24 18.3508 24 18.2432V17.835C24 17.7275 24.0427 17.6244 24.1187 17.5483C24.1947 17.4723 24.2979 17.4296 24.4054 17.4296C24.5129 17.4296 24.616 17.4723 24.692 17.5483C24.7681 17.6244 24.8108 17.7275 24.8108 17.835V18.2432C24.8108 18.3508 24.7681 18.4539 24.692 18.5299C24.616 18.6059 24.5129 18.6486 24.4054 18.6486ZM25.7716 19.5089C25.6641 19.5089 25.561 19.4662 25.4849 19.3902C25.4089 19.3141 25.3662 19.211 25.3662 19.1035V18.6936C25.3662 18.5861 25.4089 18.483 25.4849 18.407C25.561 18.331 25.6641 18.2882 25.7716 18.2882C25.8791 18.2882 25.9822 18.331 26.0583 18.407C26.1343 18.483 26.177 18.5861 26.177 18.6936V19.1035C26.177 19.211 26.1343 19.3141 26.0583 19.3902C25.9822 19.4662 25.8791 19.5089 25.7716 19.5089ZM24.4054 20.6526C24.2979 20.6526 24.1947 20.6099 24.1187 20.5338C24.0427 20.4578 24 20.3547 24 20.2472V19.8373C24 19.7298 24.0427 19.6267 24.1187 19.5506C24.1947 19.4746 24.2979 19.4319 24.4054 19.4319C24.5129 19.4319 24.616 19.4746 24.692 19.5506C24.7681 19.6267 24.8108 19.7298 24.8108 19.8373V20.2472C24.8108 20.3547 24.7681 20.4578 24.692 20.5338C24.616 20.6099 24.5129 20.6526 24.4054 20.6526ZM25.7716 21.5108C25.6641 21.5108 25.561 21.4681 25.4849 21.3921C25.4089 21.316 25.3662 21.2129 25.3662 21.1054V20.6955C25.3662 20.588 25.4089 20.4849 25.4849 20.4089C25.561 20.3328 25.6641 20.2901 25.7716 20.2901C25.8791 20.2901 25.9822 20.3328 26.0583 20.4089C26.1343 20.4849 26.177 20.588 26.177 20.6955V21.1054C26.177 21.2129 26.1343 21.316 26.0583 21.3921C25.9822 21.4681 25.8791 21.5108 25.7716 21.5108ZM28.472 22.9727H0.904429C0.796909 22.9727 0.693792 22.93 0.617764 22.854C0.541736 22.7779 0.499023 22.6748 0.499023 22.5673C0.499023 22.4598 0.541736 22.3567 0.617764 22.2806C0.693792 22.2046 0.796909 22.1619 0.904429 22.1619H28.472C28.5795 22.1619 28.6826 22.2046 28.7587 22.2806C28.8347 22.3567 28.8774 22.4598 28.8774 22.5673C28.8774 22.6748 28.8347 22.7779 28.7587 22.854C28.6826 22.93 28.5795 22.9727 28.472 22.9727Z" fill="#FAFAFA"/>
</svg>
