<svg width="29" height="30" viewBox="0 0 29 30" fill="none" xmlns="http://www.w3.org/2000/svg">
<path d="M27.263 3.78949H24.2803L19.8593 0H17.0229L18.9176 3.78949H16.0607L14.4818 2.52633H11.5662L13.4413 5.52633L11.5663 8.52633H14.4819L16.0608 7.26316H18.9177L17.0229 11.0527H19.8593L24.2804 7.26316H27.2631C28.2208 7.26316 28.9999 6.48398 28.9999 5.52633C28.9999 4.56867 28.2207 3.78949 27.263 3.78949ZM18.5557 0.947344H19.5088L22.8245 3.78943H19.9768L18.5557 0.947344ZM13.2756 3.47367H14.1495L15.0929 4.22836L14.1431 4.86158L13.2756 3.47367ZM14.1495 7.57893H13.2756L14.143 6.19102L15.0929 6.82424L14.1495 7.57893ZM19.5088 10.1053H18.5558L19.9769 7.26316H22.8246L19.5088 10.1053ZM27.263 6.31576H16.038L14.8537 5.52627L16.038 4.73678H27.2629C27.6983 4.73678 28.0524 5.09092 28.0524 5.52627C28.0524 5.96162 27.6984 6.31576 27.263 6.31576ZM5.15775 26.5263H8.31566V27.4737H5.15775V26.5263ZM10.8419 25.8947C9.71014 25.8947 8.78928 26.8155 8.78928 27.9474C8.78928 29.0793 9.71014 30.0001 10.8419 30.0001C11.9737 30.0001 12.8946 29.0793 12.8946 27.9474C12.8946 26.8155 11.9737 25.8947 10.8419 25.8947ZM10.8419 29.0527C10.2325 29.0527 9.73668 28.5568 9.73668 27.9474C9.73668 27.338 10.2326 26.8421 10.8419 26.8421C11.4514 26.8421 11.9472 27.338 11.9472 27.9474C11.9472 28.5568 11.4514 29.0527 10.8419 29.0527ZM2.94719 25.8947C1.81539 25.8947 0.894531 26.8155 0.894531 27.9474C0.894531 29.0793 1.81539 30.0001 2.94719 30.0001C4.07898 30.0001 4.99984 29.0793 4.99984 27.9474C4.99984 26.8155 4.07898 25.8947 2.94719 25.8947ZM2.94719 29.0527C2.33775 29.0527 1.84193 28.5568 1.84193 27.9474C1.84193 27.338 2.33781 26.8421 2.94719 26.8421C3.55662 26.8421 4.05244 27.338 4.05244 27.9474C4.0525 28.5568 3.55662 29.0527 2.94719 29.0527ZM22.2104 29.0527H23.1577V30H22.2104V29.0527ZM24.1051 29.0527H25.0524V30H24.1051V29.0527ZM25.9998 29.0527H26.9472V30H25.9998V29.0527ZM20.3156 29.0527H21.2629V30H20.3156V29.0527ZM16.5262 29.0527H17.4735V30H16.5262V29.0527ZM18.4209 29.0527H19.3683V30H18.4209V29.0527ZM16.5262 27.1579H17.4735V28.1053H16.5262V27.1579ZM22.2104 27.1579H23.1577V28.1053H22.2104V27.1579ZM18.4209 27.1579H19.3683V28.1053H18.4209V27.1579ZM20.3156 27.1579H21.2629V28.1053H20.3156V27.1579ZM18.4209 25.2632H19.3683V26.2105H18.4209V25.2632ZM16.5262 25.2632H17.4735V26.2105H16.5262V25.2632ZM20.3156 25.2632H21.2629V26.2105H20.3156V25.2632ZM7.36826 6.94734H8.31561V7.89469H7.36826V6.94734ZM9.26301 6.94734H10.2104V7.89469H9.26301V6.94734ZM5.47352 6.94734H6.42086V7.89469H5.47352V6.94734ZM5.47352 5.05266H6.42086V6H5.47352V5.05266ZM9.26301 5.05266H10.2104V6H9.26301V5.05266Z" fill="#FAFAFA"/>
</svg>
