<svg width="30" height="30" viewBox="0 0 30 30" fill="none" xmlns="http://www.w3.org/2000/svg">
<path d="M15.2695 12.8603L14.6106 14.1781L13.4435 15.3451V16.9167L14.9783 17.6841H6.94734V19.5789H3.40395L0.631582 23.0443V24.6315H0V27.4736H1.73684V26.5263H0.947344V25.5789H15.7894V26.5263H14.3684V27.4736H16.7368V17.6842H15.1174L16.2541 16.7368H17.639V15.1638L19.0403 13.3804L15.2695 12.8603ZM3.85922 20.5263H5.05266V22.7368H2.09086L3.85922 20.5263ZM6.94734 24.6315H1.57893V23.6842H6V20.5263H6.94734V24.6315ZM15.7895 18.6315V24.6315H7.89475V18.6315H15.7895ZM16.6917 14.8361V15.7894H15.9111L14.9347 16.6032L14.3909 16.3313V15.7376L15.3892 14.7393L15.813 13.8917L17.2753 14.0933L16.6917 14.8361ZM24.0472 10.8606L23.186 11.2552C23.7261 12.434 24 13.6939 24 15C24 15.576 23.9454 16.1417 23.841 16.6918H23.0527V15.79L21.97 15.2486V13.6638L20.3459 12.5811V11.8422H19.3986V13.0882L21.0226 14.1709V15.8342L22.1053 16.3755V17.6391H23.6079C22.7684 20.3915 20.6398 22.6279 17.7962 23.5565L18.0902 24.4572C22.1917 23.1176 24.9473 19.3171 24.9473 15C24.9473 13.5567 24.6445 12.164 24.0472 10.8606Z" fill="#FAFAFA"/>
<path d="M14.5264 9.23453V11.2781H13.0832L11.8197 13.8054V14.5262H9.87934L9.25707 13.2817L6.98686 14.4169L6.12863 13.4846C6.41262 11.8157 7.16263 10.2611 8.29215 9.0001L7.58627 8.36816C5.9525 10.1933 5.05273 12.5484 5.05273 15C5.05273 15.5835 5.18949 16.6405 5.19529 16.6852L5.24896 17.0977H7.32986L7.92184 17.3345L8.27375 16.4549L7.51232 16.1503H6.0858C6.04736 15.8018 6.00008 15.3111 6.00008 14.9999C6.00008 14.9158 6.00166 14.8319 6.004 14.748L6.77275 15.583L8.83332 14.5527L9.29375 15.4736H12.767V14.029L13.6688 12.2254H15.4738V9.23447L14.5264 9.23453Z" fill="#FAFAFA"/>
<path d="M28.263 3.78949H25.2803L20.8593 0H18.0229L19.9176 3.78949H17.0607L15.4818 2.52633H12.5662L14.4413 5.52633L12.5663 8.52633H15.4819L17.0608 7.26316H19.9177L18.0229 11.0527H20.8593L25.2804 7.26316H28.2631C29.2208 7.26316 29.9999 6.48398 29.9999 5.52633C29.9999 4.56867 29.2207 3.78949 28.263 3.78949ZM19.5557 0.947344H20.5088L23.8245 3.78943H20.9768L19.5557 0.947344ZM14.2756 3.47367H15.1495L16.0929 4.22836L15.1431 4.86158L14.2756 3.47367ZM15.1495 7.57893H14.2756L15.143 6.19102L16.0929 6.82424L15.1495 7.57893ZM20.5088 10.1053H19.5558L20.9769 7.26316H23.8246L20.5088 10.1053ZM28.263 6.31576H17.038L15.8537 5.52627L17.038 4.73678H28.2629C28.6983 4.73678 29.0524 5.09092 29.0524 5.52627C29.0524 5.96162 28.6984 6.31576 28.263 6.31576ZM6.15775 26.5263H9.31566V27.4737H6.15775V26.5263ZM11.8419 25.8947C10.7101 25.8947 9.78928 26.8155 9.78928 27.9474C9.78928 29.0793 10.7101 30.0001 11.8419 30.0001C12.9737 30.0001 13.8946 29.0793 13.8946 27.9474C13.8946 26.8155 12.9737 25.8947 11.8419 25.8947ZM11.8419 29.0527C11.2325 29.0527 10.7367 28.5568 10.7367 27.9474C10.7367 27.338 11.2326 26.8421 11.8419 26.8421C12.4514 26.8421 12.9472 27.338 12.9472 27.9474C12.9472 28.5568 12.4514 29.0527 11.8419 29.0527ZM3.94719 25.8947C2.81539 25.8947 1.89453 26.8155 1.89453 27.9474C1.89453 29.0793 2.81539 30.0001 3.94719 30.0001C5.07898 30.0001 5.99984 29.0793 5.99984 27.9474C5.99984 26.8155 5.07898 25.8947 3.94719 25.8947ZM3.94719 29.0527C3.33775 29.0527 2.84193 28.5568 2.84193 27.9474C2.84193 27.338 3.33781 26.8421 3.94719 26.8421C4.55662 26.8421 5.05244 27.338 5.05244 27.9474C5.0525 28.5568 4.55662 29.0527 3.94719 29.0527ZM23.2104 29.0527H24.1577V30H23.2104V29.0527ZM25.1051 29.0527H26.0524V30H25.1051V29.0527ZM26.9998 29.0527H27.9472V30H26.9998V29.0527ZM21.3156 29.0527H22.2629V30H21.3156V29.0527ZM17.5262 29.0527H18.4735V30H17.5262V29.0527ZM19.4209 29.0527H20.3683V30H19.4209V29.0527ZM17.5262 27.1579H18.4735V28.1053H17.5262V27.1579ZM23.2104 27.1579H24.1577V28.1053H23.2104V27.1579ZM19.4209 27.1579H20.3683V28.1053H19.4209V27.1579ZM21.3156 27.1579H22.2629V28.1053H21.3156V27.1579ZM19.4209 25.2632H20.3683V26.2105H19.4209V25.2632ZM17.5262 25.2632H18.4735V26.2105H17.5262V25.2632ZM21.3156 25.2632H22.2629V26.2105H21.3156V25.2632ZM8.36826 6.94734H9.31561V7.89469H8.36826V6.94734ZM10.263 6.94734H11.2104V7.89469H10.263V6.94734ZM6.47352 6.94734H7.42086V7.89469H6.47352V6.94734ZM6.47352 5.05266H7.42086V6H6.47352V5.05266ZM10.263 5.05266H11.2104V6H10.263V5.05266Z" fill="#FAFAFA"/>
<path d="M12.1578 5.05271H13.1051V6.00005H12.1578V5.05271ZM2.68408 5.05271H3.63143V6.00005H2.68408V5.05271ZM8.36826 5.05271H9.31561V6.00005H8.36826V5.05271ZM4.57877 5.05271H5.52611V6.00005H4.57877V5.05271ZM6.47352 3.15796H7.42086V4.1053H6.47352V3.15796ZM10.263 3.15796H11.2104V4.1053H10.263V3.15796ZM8.36826 3.15796H9.31561V4.1053H8.36826V3.15796Z" fill="#FAFAFA"/>
</svg>
