<svg width="150" height="24" viewBox="0 0 150 24" fill="none" xmlns="http://www.w3.org/2000/svg">
<path fill-rule="evenodd" clip-rule="evenodd" d="M5.59 2.75C5.08187 2.75 4.56293 2.95593 4.03614 3.47449L4.03046 3.48008L4.02467 3.48555C3.56991 3.91456 3.25506 4.38355 3.05792 4.88459L3.05637 4.88855C2.85415 5.39409 2.75 5.94888 2.75 6.54C2.75 7.46267 2.96266 8.45326 3.41075 9.51784C3.86507 10.5871 4.49483 11.6779 5.28758 12.7803C6.0935 13.887 6.99752 14.9469 8.00038 15.9597C9.01353 16.9629 10.0741 17.8675 11.1922 18.6842C12.291 19.4842 13.3917 20.1146 14.484 20.58C15.5587 21.0379 16.5486 21.25 17.45 21.25C18.0548 21.25 18.6064 21.1382 19.1115 20.9277L19.1156 20.926C19.6104 20.7232 20.0604 20.4034 20.4843 19.9364M2.98958 2.39989C3.74153 1.66198 4.62059 1.25 5.59 1.25C5.97318 1.25 6.36311 1.33138 6.71941 1.5014C7.08755 1.67229 7.42309 1.93393 7.68396 2.30922L10.0003 5.574C10.2053 5.85906 10.3657 6.13796 10.4818 6.42035C10.5997 6.6971 10.68 7.00644 10.68 7.32C10.68 7.70687 10.5673 8.07663 10.367 8.40939C10.1968 8.70784 9.96427 8.99567 9.69563 9.26502L9.00688 9.98096C9.01385 9.99743 9.02321 10.0197 9.03333 10.0455C9.183 10.3079 9.44802 10.6772 9.84989 11.1524C10.29 11.6609 10.7568 12.1761 11.2604 12.6897C11.7923 13.2116 12.2961 13.6858 12.8048 14.1178C13.2858 14.5247 13.6606 14.7841 13.933 14.9322C13.955 14.9417 13.9753 14.9509 13.9918 14.9584L14.6815 14.2778C14.955 14.0046 15.2482 13.7638 15.5612 13.5966C15.8882 13.4019 16.2447 13.29 16.64 13.29C16.9399 13.29 17.2362 13.354 17.534 13.4758C17.8169 13.5916 18.0939 13.7509 18.3717 13.9398L18.378 13.9441L21.6909 16.2961C22.0455 16.5425 22.3234 16.8545 22.4965 17.2479L22.5016 17.2596L22.5064 17.2715C22.6338 17.59 22.72 17.9351 22.72 18.33C22.72 18.8025 22.6147 19.2817 22.3982 19.7403C22.1984 20.1633 21.9381 20.5658 21.5957 20.9436C21.0402 21.5559 20.4107 22.0159 19.6865 22.3131C18.9922 22.6021 18.2445 22.75 17.45 22.75C16.3114 22.75 15.1213 22.4821 13.896 21.96C12.6885 21.4455 11.4895 20.7561 10.3086 19.8963L10.3076 19.8956C9.12671 19.0331 8.00824 18.0786 6.94224 17.0229L6.93709 17.0178C5.88147 15.9519 4.92677 14.8332 4.07368 13.6614L4.07114 13.658C3.22474 12.4813 2.5351 11.293 2.0297 10.1032L2.02877 10.101C1.51719 8.88605 1.25 7.69701 1.25 6.54C1.25 5.77184 1.3856 5.02732 1.66286 4.33342C1.94487 3.61753 2.38783 2.96904 2.98958 2.39989ZM5.59 2.75C5.76498 2.75 5.93314 2.78783 6.07545 2.85614L5.59 2.75ZM6.45336 3.16691C6.35581 3.02601 6.23429 2.92955 6.08571 2.86097L6.07545 2.85614M6.45336 3.16691L8.77831 6.44398L6.45336 3.16691ZM9.09584 6.99397C9.03246 6.83904 8.93418 6.66049 8.78135 6.44823L8.77831 6.44398M9.18 7.32C9.18 7.25575 9.16141 7.14722 9.10064 7.00544L9.09584 6.99397M9.18 7.32C9.18 7.40903 9.15514 7.51553 9.07935 7.64004L9.18 7.32ZM9.07935 7.64004L9.07305 7.6504L9.07935 7.64004ZM9.07305 7.6504L9.06708 7.66096L9.07305 7.6504ZM9.06708 7.66096C8.97896 7.81685 8.83569 8.00365 8.62967 8.20967L9.06708 7.66096ZM8.62967 8.20967L8.62454 8.2148L8.62967 8.20967ZM8.62454 8.2148L8.61951 8.22003L8.62454 8.2148ZM8.61951 8.22003L7.86359 9.00579L8.61951 8.22003ZM7.86359 9.00579C7.6056 9.26699 7.49 9.59078 7.49 9.93C7.49 10.081 7.51008 10.2127 7.54239 10.3419L7.55275 10.3833L7.56775 10.4233C7.58736 10.4756 7.60704 10.522 7.61951 10.5514C7.62075 10.5544 7.62193 10.5571 7.62302 10.5597C7.63602 10.5904 7.63857 10.5975 7.63858 10.5975L7.6596 10.6605L7.69158 10.7191C7.90702 11.1141 8.25419 11.5888 8.70746 12.1245L8.71287 12.1308C9.1705 12.6596 9.66123 13.2016 10.1946 13.7453L10.1996 13.7503L10.2046 13.7553C10.7507 14.2912 11.2851 14.7952 11.8346 15.2617L11.8355 15.2625C12.3777 15.7213 12.8536 16.0582 13.2591 16.2728L13.2944 16.2915L13.3315 16.3064C13.3366 16.3084 13.3476 16.3132 13.38 16.328C13.4073 16.3406 13.4492 16.3599 13.4946 16.3794L13.5105 16.3862L13.5267 16.3922C13.7163 16.4633 13.8919 16.48 14.04 16.48C14.4185 16.48 14.7355 16.3341 14.9782 16.0924L15.7368 15.3438L15.7403 15.3403C15.96 15.1207 16.1389 14.987 16.2769 14.9149L16.2988 14.9035L16.32 14.8906C16.4472 14.8132 16.5438 14.79 16.64 14.79C16.7201 14.79 16.8238 14.806 16.966 14.8642C17.1216 14.9278 17.3028 15.0273 17.5222 15.1761L20.8258 17.5215L20.8331 17.5266C20.9913 17.6362 21.072 17.74 21.1189 17.8418C21.1879 18.0176 21.22 18.1689 21.22 18.33C21.22 18.5775 21.1653 18.8383 21.0418 19.0997C20.9016 19.3966 20.7217 19.6743 20.4843 19.9364" fill="#FAFAFA"/>
<path d="M43.7918 12.992H40.5598V16.304H38.8638V12.992H35.6318V11.456H38.8638V8.14396H40.5598V11.456H43.7918V12.992Z" fill="#FAFAFA"/>
<path d="M48.6537 14.832C48.7604 15.3653 48.9897 15.7706 49.3417 16.048C49.6937 16.3253 50.1684 16.464 50.7657 16.464C51.523 16.464 52.0777 16.1653 52.4297 15.568C52.7817 14.9706 52.9577 13.952 52.9577 12.512C52.7017 12.8746 52.339 13.1573 51.8697 13.36C51.411 13.552 50.9097 13.648 50.3657 13.648C49.6724 13.648 49.043 13.5093 48.4777 13.232C47.9124 12.944 47.4644 12.5226 47.1337 11.968C46.8137 11.4026 46.6537 10.72 46.6537 9.91997C46.6537 8.74663 46.995 7.8133 47.6777 7.11997C48.371 6.41597 49.3204 6.06396 50.5257 6.06396C51.9764 6.06396 53.0057 6.5493 53.6137 7.51997C54.2324 8.47997 54.5417 9.9573 54.5417 11.952C54.5417 13.328 54.4244 14.4533 54.1897 15.328C53.9657 16.2026 53.571 16.864 53.0057 17.312C52.4404 17.76 51.6564 17.984 50.6537 17.984C49.5124 17.984 48.6324 17.6853 48.0137 17.088C47.395 16.4906 47.0484 15.7386 46.9737 14.832H48.6537ZM50.6857 12.112C51.3257 12.112 51.827 11.9146 52.1897 11.52C52.563 11.1146 52.7497 10.5813 52.7497 9.91997C52.7497 9.18397 52.5524 8.6133 52.1577 8.20796C51.7737 7.79197 51.2457 7.58397 50.5737 7.58397C49.9017 7.58397 49.3684 7.7973 48.9737 8.22397C48.5897 8.63997 48.3977 9.1893 48.3977 9.87197C48.3977 10.5226 48.5844 11.0613 48.9577 11.488C49.3417 11.904 49.9177 12.112 50.6857 12.112Z" fill="#FAFAFA"/>
<path d="M63.93 7.74397L59.482 18H57.642L62.138 7.93597H56.218V6.38397H63.93V7.74397Z" fill="#FAFAFA"/>
<path d="M66.4991 15.52C67.5231 14.6346 68.3284 13.9093 68.9151 13.344C69.5124 12.768 70.0084 12.1706 70.4031 11.552C70.7978 10.9333 70.9951 10.3146 70.9951 9.69596C70.9951 9.05596 70.8404 8.55463 70.5311 8.19197C70.2324 7.8293 69.7578 7.64797 69.1071 7.64797C68.4778 7.64797 67.9871 7.85063 67.6351 8.25597C67.2938 8.65063 67.1124 9.18397 67.0911 9.85597H65.3311C65.3631 8.63997 65.7258 7.71197 66.4191 7.07197C67.1231 6.4213 68.0138 6.09597 69.0911 6.09597C70.2538 6.09597 71.1604 6.41597 71.8111 7.05597C72.4724 7.69597 72.8031 8.5493 72.8031 9.61596C72.8031 10.384 72.6058 11.1253 72.2111 11.84C71.8271 12.544 71.3631 13.1786 70.8191 13.744C70.2858 14.2986 69.6031 14.944 68.7711 15.68L68.0511 16.32H73.1231V17.84H65.3471V16.512L66.4991 15.52Z" fill="#FAFAFA"/>
<path d="M82.2455 7.90396H76.8855V11.088C77.1095 10.7893 77.4401 10.5386 77.8775 10.336C78.3255 10.1333 78.8001 10.032 79.3015 10.032C80.1975 10.032 80.9228 10.224 81.4775 10.608C82.0428 10.992 82.4428 11.4773 82.6775 12.064C82.9228 12.6506 83.0455 13.2693 83.0455 13.92C83.0455 14.7093 82.8908 15.4133 82.5815 16.032C82.2828 16.64 81.8295 17.12 81.2215 17.472C80.6241 17.824 79.8881 18 79.0135 18C77.8508 18 76.9175 17.712 76.2135 17.136C75.5095 16.56 75.0881 15.7973 74.9495 14.848H76.7255C76.8428 15.3493 77.1041 15.7493 77.5095 16.048C77.9148 16.336 78.4215 16.48 79.0295 16.48C79.7868 16.48 80.3521 16.2506 80.7255 15.792C81.1095 15.3333 81.3015 14.7253 81.3015 13.968C81.3015 13.2 81.1095 12.6133 80.7255 12.208C80.3415 11.792 79.7761 11.584 79.0295 11.584C78.5068 11.584 78.0641 11.7173 77.7015 11.984C77.3495 12.24 77.0935 12.592 76.9335 13.04H75.2055V6.30397H82.2455V7.90396Z" fill="#FAFAFA"/>
<path d="M87.2162 14.832C87.3229 15.3653 87.5522 15.7706 87.9042 16.048C88.2562 16.3253 88.7309 16.464 89.3282 16.464C90.0855 16.464 90.6402 16.1653 90.9922 15.568C91.3442 14.9706 91.5202 13.952 91.5202 12.512C91.2642 12.8746 90.9015 13.1573 90.4322 13.36C89.9735 13.552 89.4722 13.648 88.9282 13.648C88.2349 13.648 87.6055 13.5093 87.0402 13.232C86.4749 12.944 86.0269 12.5226 85.6962 11.968C85.3762 11.4026 85.2162 10.72 85.2162 9.91997C85.2162 8.74663 85.5575 7.8133 86.2402 7.11997C86.9335 6.41597 87.8829 6.06396 89.0882 6.06396C90.5389 6.06396 91.5682 6.5493 92.1762 7.51997C92.7949 8.47997 93.1042 9.9573 93.1042 11.952C93.1042 13.328 92.9869 14.4533 92.7522 15.328C92.5282 16.2026 92.1335 16.864 91.5682 17.312C91.0029 17.76 90.2189 17.984 89.2162 17.984C88.0749 17.984 87.1949 17.6853 86.5762 17.088C85.9575 16.4906 85.6109 15.7386 85.5362 14.832H87.2162ZM89.2482 12.112C89.8882 12.112 90.3895 11.9146 90.7522 11.52C91.1255 11.1146 91.3122 10.5813 91.3122 9.91997C91.3122 9.18397 91.1149 8.6133 90.7202 8.20796C90.3362 7.79197 89.8082 7.58397 89.1362 7.58397C88.4642 7.58397 87.9309 7.7973 87.5362 8.22397C87.1522 8.63997 86.9602 9.1893 86.9602 9.87197C86.9602 10.5226 87.1469 11.0613 87.5202 11.488C87.9042 11.904 88.4802 12.112 89.2482 12.112Z" fill="#FAFAFA"/>
<path d="M102.62 7.90396H97.2605V11.088C97.4845 10.7893 97.8151 10.5386 98.2525 10.336C98.7005 10.1333 99.1751 10.032 99.6765 10.032C100.572 10.032 101.298 10.224 101.852 10.608C102.418 10.992 102.818 11.4773 103.052 12.064C103.298 12.6506 103.42 13.2693 103.42 13.92C103.42 14.7093 103.266 15.4133 102.956 16.032C102.658 16.64 102.204 17.12 101.596 17.472C100.999 17.824 100.263 18 99.3885 18C98.2258 18 97.2925 17.712 96.5885 17.136C95.8845 16.56 95.4631 15.7973 95.3245 14.848H97.1005C97.2178 15.3493 97.4791 15.7493 97.8845 16.048C98.2898 16.336 98.7965 16.48 99.4045 16.48C100.162 16.48 100.727 16.2506 101.1 15.792C101.484 15.3333 101.676 14.7253 101.676 13.968C101.676 13.2 101.484 12.6133 101.1 12.208C100.716 11.792 100.151 11.584 99.4045 11.584C98.8818 11.584 98.4391 11.7173 98.0765 11.984C97.7245 12.24 97.4685 12.592 97.3085 13.04H95.5805V6.30397H102.62V7.90396Z" fill="#FAFAFA"/>
<path d="M105.079 7.99997V6.33597H108.407V18H106.567V7.99997H105.079Z" fill="#FAFAFA"/>
<path d="M110.673 7.99997V6.33597H114.001V18H112.161V7.99997H110.673Z" fill="#FAFAFA"/>
<path d="M116.267 7.99997V6.33597H119.595V18H117.755V7.99997H116.267Z" fill="#FAFAFA"/>
<path d="M124.372 14.832C124.479 15.3653 124.708 15.7706 125.06 16.048C125.412 16.3253 125.887 16.464 126.484 16.464C127.242 16.464 127.796 16.1653 128.148 15.568C128.5 14.9706 128.676 13.952 128.676 12.512C128.42 12.8746 128.058 13.1573 127.588 13.36C127.13 13.552 126.628 13.648 126.084 13.648C125.391 13.648 124.762 13.5093 124.196 13.232C123.631 12.944 123.183 12.5226 122.852 11.968C122.532 11.4026 122.372 10.72 122.372 9.91997C122.372 8.74663 122.714 7.8133 123.396 7.11997C124.09 6.41597 125.039 6.06396 126.244 6.06396C127.695 6.06396 128.724 6.5493 129.332 7.51997C129.951 8.47997 130.26 9.9573 130.26 11.952C130.26 13.328 130.143 14.4533 129.908 15.328C129.684 16.2026 129.29 16.864 128.724 17.312C128.159 17.76 127.375 17.984 126.372 17.984C125.231 17.984 124.351 17.6853 123.732 17.088C123.114 16.4906 122.767 15.7386 122.692 14.832H124.372ZM126.404 12.112C127.044 12.112 127.546 11.9146 127.908 11.52C128.282 11.1146 128.468 10.5813 128.468 9.91997C128.468 9.18397 128.271 8.6133 127.876 8.20796C127.492 7.79197 126.964 7.58397 126.292 7.58397C125.62 7.58397 125.087 7.7973 124.692 8.22397C124.308 8.63997 124.116 9.1893 124.116 9.87197C124.116 10.5226 124.303 11.0613 124.676 11.488C125.06 11.904 125.636 12.112 126.404 12.112Z" fill="#FAFAFA"/>
<path d="M139.777 7.90396H134.417V11.088C134.641 10.7893 134.971 10.5386 135.409 10.336C135.857 10.1333 136.331 10.032 136.833 10.032C137.729 10.032 138.454 10.224 139.009 10.608C139.574 10.992 139.974 11.4773 140.209 12.064C140.454 12.6506 140.577 13.2693 140.577 13.92C140.577 14.7093 140.422 15.4133 140.113 16.032C139.814 16.64 139.361 17.12 138.753 17.472C138.155 17.824 137.419 18 136.545 18C135.382 18 134.449 17.712 133.745 17.136C133.041 16.56 132.619 15.7973 132.481 14.848H134.257C134.374 15.3493 134.635 15.7493 135.041 16.048C135.446 16.336 135.953 16.48 136.561 16.48C137.318 16.48 137.883 16.2506 138.257 15.792C138.641 15.3333 138.833 14.7253 138.833 13.968C138.833 13.2 138.641 12.6133 138.257 12.208C137.873 11.792 137.307 11.584 136.561 11.584C136.038 11.584 135.595 11.7173 135.233 11.984C134.881 12.24 134.625 12.592 134.465 13.04H132.737V6.30397H139.777V7.90396Z" fill="#FAFAFA"/>
<path d="M149.867 7.74397L145.419 18H143.579L148.075 7.93597H142.155V6.38397H149.867V7.74397Z" fill="#FAFAFA"/>
</svg>
