<svg width="24" height="22" viewBox="0 0 24 22" fill="none" xmlns="http://www.w3.org/2000/svg">
<path d="M22.7109 2.05033H16.3869C16.3802 2.05033 16.3738 2.05094 16.3672 2.05132C16.1337 1.83202 15.8843 1.63037 15.6209 1.44804C15.5442 1.39503 15.4496 1.37464 15.3579 1.39134C15.2662 1.40804 15.1848 1.46046 15.1317 1.5371C15.0787 1.61379 15.0583 1.7084 15.075 1.80013C15.0917 1.89187 15.1441 1.97322 15.2208 2.02629C16.7736 3.10057 17.7006 4.86762 17.7006 6.75307C17.7006 9.92008 15.124 12.4967 11.957 12.4967C8.79005 12.4967 6.21347 9.92008 6.21347 6.75307C6.21347 3.5861 8.79005 1.00952 11.957 1.00952C12.5857 1.00952 13.2036 1.11035 13.7934 1.30924C13.8371 1.32402 13.8834 1.33003 13.9294 1.32692C13.9755 1.32382 14.0205 1.31167 14.0619 1.29117C14.1032 1.27067 14.1402 1.24221 14.1705 1.20743C14.2009 1.17264 14.2241 1.13222 14.2388 1.08846C14.2536 1.04471 14.2596 0.99849 14.2565 0.952427C14.2534 0.906365 14.2412 0.861366 14.2207 0.820001C14.2002 0.778636 14.1718 0.741714 14.137 0.711345C14.1022 0.680976 14.0618 0.657754 14.0181 0.643006C13.3557 0.419646 12.6622 0.306396 11.957 0.306396C8.4023 0.306396 5.51034 3.19835 5.51034 6.75307C5.51034 10.3078 8.4023 13.1998 11.957 13.1998C15.5117 13.1998 18.4037 10.3078 18.4037 6.75307C18.4037 5.28372 17.9018 3.87879 17.0119 2.75346H22.7109C23.034 2.75346 23.2969 3.01629 23.2969 3.3394V14.4044H20.5162C20.322 14.4044 20.1646 14.5618 20.1646 14.756C20.1646 14.9502 20.322 15.1076 20.5162 15.1076H23.2969V16.9539C23.2969 17.277 23.034 17.5398 22.7109 17.5398H1.28906C0.965953 17.5398 0.703125 17.277 0.703125 16.9539V15.1076H18.7456C18.9398 15.1076 19.0972 14.9502 19.0972 14.756C19.0972 14.5618 18.9398 14.4044 18.7456 14.4044H0.703125V3.3394C0.703125 3.01629 0.965953 2.75346 1.28906 2.75346H5.48147C5.67567 2.75346 5.83303 2.5961 5.83303 2.4019C5.83303 2.20769 5.67567 2.05033 5.48147 2.05033H1.28906C0.57825 2.05033 0 2.62863 0 3.3394V16.9538C0 17.6646 0.57825 18.2429 1.28906 18.2429H8.99512V20.9904H7.93378C7.73958 20.9904 7.58222 21.1478 7.58222 21.342C7.58222 21.5362 7.73958 21.6935 7.93378 21.6935H15.9802C16.1745 21.6935 16.3318 21.5362 16.3318 21.342C16.3318 21.1478 16.1745 20.9904 15.9802 20.9904H14.9189V18.2429H22.7109C23.4217 18.2429 24 17.6646 24 16.9538V3.3394C24 2.62863 23.4217 2.05033 22.7109 2.05033ZM14.2158 20.9905H9.69825V18.2429H14.2158V20.9905Z" fill="#FAFAFA"/>
</svg>
