<svg width="40" height="40" viewBox="0 0 40 40" fill="none" xmlns="http://www.w3.org/2000/svg">
<path d="M40 20C40 31.0457 31.0457 40 20 40C8.9543 40 0 31.0457 0 20C0 8.9543 8.9543 0 20 0C31.0457 0 40 8.9543 40 20Z" fill="white" fill-opacity="0.38"/>
<g clip-path="url(#clip0_1855_1087)">
<path d="M25.0001 10H15.0004C12.2507 10 10.0005 12.2502 10.0005 14.9999V25.0001C10.0005 27.7491 12.2507 30 15.0004 30H25.0001C27.7498 30 30 27.7491 30 25.0001V14.9999C30 12.2502 27.7498 10 25.0001 10ZM28.3333 25.0001C28.3333 26.8376 26.8386 28.3333 25.0001 28.3333H15.0004C13.1627 28.3333 11.6672 26.8376 11.6672 25.0001V14.9999C11.6672 13.1619 13.1627 11.6667 15.0004 11.6667H25.0001C26.8386 11.6667 28.3333 13.1619 28.3333 14.9999V25.0001Z" fill="#FAFAFA"/>
<path d="M25.4175 15.8329C26.1078 15.8329 26.6674 15.2733 26.6674 14.583C26.6674 13.8926 26.1078 13.333 25.4175 13.333C24.7271 13.333 24.1675 13.8926 24.1675 14.583C24.1675 15.2733 24.7271 15.8329 25.4175 15.8329Z" fill="#FAFAFA"/>
<path d="M20.0004 15C17.2384 15 15.0005 17.2382 15.0005 19.9999C15.0005 22.7606 17.2384 25.0002 20.0004 25.0002C22.7615 25.0002 25.0002 22.7606 25.0002 19.9999C25.0002 17.2382 22.7615 15 20.0004 15ZM20.0004 23.3335C18.1596 23.3335 16.6672 21.8411 16.6672 19.9999C16.6672 18.1587 18.1596 16.6667 20.0004 16.6667C21.8411 16.6667 23.3335 18.1587 23.3335 19.9999C23.3335 21.8411 21.8411 23.3335 20.0004 23.3335Z" fill="#FAFAFA"/>
</g>
<defs>
<clipPath id="clip0_1855_1087">
<rect width="20" height="20" fill="white" transform="translate(10 10)"/>
</clipPath>
</defs>
</svg>
