<svg width="216" height="24" viewBox="0 0 216 24" fill="none" xmlns="http://www.w3.org/2000/svg">
<path d="M38.8642 18.1122C38.1176 18.1122 37.4456 17.9842 36.8482 17.7282C36.2509 17.4615 35.7816 17.0882 35.4402 16.6082C35.0989 16.1282 34.9282 15.5682 34.9282 14.9282H36.8802C36.9229 15.4082 37.1096 15.8028 37.4402 16.1122C37.7816 16.4215 38.2562 16.5762 38.8642 16.5762C39.4936 16.5762 39.9842 16.4268 40.3362 16.1282C40.6882 15.8188 40.8642 15.4242 40.8642 14.9442C40.8642 14.5708 40.7522 14.2668 40.5282 14.0322C40.3149 13.7975 40.0429 13.6162 39.7122 13.4882C39.3922 13.3602 38.9442 13.2215 38.3682 13.0722C37.6429 12.8802 37.0509 12.6882 36.5922 12.4962C36.1442 12.2935 35.7602 11.9842 35.4402 11.5682C35.1202 11.1522 34.9602 10.5975 34.9602 9.90418C34.9602 9.26418 35.1202 8.70418 35.4402 8.22418C35.7602 7.74418 36.2082 7.37618 36.7842 7.12018C37.3602 6.86418 38.0269 6.73618 38.7842 6.73618C39.8616 6.73618 40.7416 7.00818 41.4242 7.55218C42.1176 8.08551 42.5016 8.82151 42.5762 9.76018H40.5602C40.5282 9.35484 40.3362 9.00818 39.9842 8.72018C39.6322 8.43218 39.1682 8.28818 38.5922 8.28818C38.0696 8.28818 37.6429 8.42151 37.3122 8.68818C36.9816 8.95484 36.8162 9.33884 36.8162 9.84018C36.8162 10.1815 36.9176 10.4642 37.1202 10.6882C37.3336 10.9015 37.6002 11.0722 37.9202 11.2002C38.2402 11.3282 38.6776 11.4668 39.2322 11.6162C39.9682 11.8188 40.5656 12.0215 41.0242 12.2242C41.4936 12.4268 41.8882 12.7415 42.2082 13.1682C42.5389 13.5842 42.7042 14.1442 42.7042 14.8482C42.7042 15.4135 42.5496 15.9468 42.2402 16.4482C41.9416 16.9495 41.4989 17.3548 40.9122 17.6642C40.3362 17.9628 39.6536 18.1122 38.8642 18.1122Z" fill="#FAFAFA"/>
<path d="M44.2485 13.5522C44.2485 12.6668 44.4298 11.8828 44.7925 11.2002C45.1658 10.5175 45.6671 9.98951 46.2965 9.61618C46.9365 9.23218 47.6405 9.04018 48.4085 9.04018C49.1018 9.04018 49.7045 9.17884 50.2165 9.45618C50.7391 9.72284 51.1551 10.0588 51.4645 10.4642V9.18418H53.3045V18.0002H51.4645V16.6882C51.1551 17.1042 50.7338 17.4508 50.2005 17.7282C49.6671 18.0055 49.0591 18.1442 48.3765 18.1442C47.6191 18.1442 46.9258 17.9522 46.2965 17.5682C45.6671 17.1735 45.1658 16.6295 44.7925 15.9362C44.4298 15.2322 44.2485 14.4375 44.2485 13.5522ZM51.4645 13.5842C51.4645 12.9762 51.3365 12.4482 51.0805 12.0002C50.8351 11.5522 50.5098 11.2108 50.1045 10.9762C49.6991 10.7415 49.2618 10.6242 48.7925 10.6242C48.3231 10.6242 47.8858 10.7415 47.4805 10.9762C47.0751 11.2002 46.7445 11.5362 46.4885 11.9842C46.2431 12.4215 46.1205 12.9442 46.1205 13.5522C46.1205 14.1602 46.2431 14.6935 46.4885 15.1522C46.7445 15.6108 47.0751 15.9628 47.4805 16.2082C47.8965 16.4428 48.3338 16.5602 48.7925 16.5602C49.2618 16.5602 49.6991 16.4428 50.1045 16.2082C50.5098 15.9735 50.8351 15.6322 51.0805 15.1842C51.3365 14.7255 51.4645 14.1922 51.4645 13.5842Z" fill="#FAFAFA"/>
<path d="M63.6842 9.18418V18.0002H61.8602V16.9602C61.5722 17.3228 61.1936 17.6108 60.7242 17.8242C60.2656 18.0268 59.7749 18.1282 59.2522 18.1282C58.5589 18.1282 57.9349 17.9842 57.3802 17.6962C56.8362 17.4082 56.4042 16.9815 56.0842 16.4162C55.7749 15.8508 55.6202 15.1682 55.6202 14.3682V9.18418H57.4282V14.0962C57.4282 14.8855 57.6256 15.4935 58.0202 15.9202C58.4149 16.3362 58.9536 16.5442 59.6362 16.5442C60.3189 16.5442 60.8576 16.3362 61.2522 15.9202C61.6576 15.4935 61.8602 14.8855 61.8602 14.0962V9.18418H63.6842Z" fill="#FAFAFA"/>
<path d="M65.4828 13.5522C65.4828 12.6668 65.6642 11.8828 66.0268 11.2002C66.4002 10.5175 66.9015 9.98951 67.5308 9.61618C68.1708 9.23218 68.8802 9.04018 69.6588 9.04018C70.2348 9.04018 70.8002 9.16818 71.3548 9.42418C71.9202 9.66951 72.3682 10.0002 72.6988 10.4162V6.16018H74.5388V18.0002H72.6988V16.6722C72.4002 17.0988 71.9842 17.4508 71.4508 17.7282C70.9282 18.0055 70.3255 18.1442 69.6428 18.1442C68.8748 18.1442 68.1708 17.9522 67.5308 17.5682C66.9015 17.1735 66.4002 16.6295 66.0268 15.9362C65.6642 15.2322 65.4828 14.4375 65.4828 13.5522ZM72.6988 13.5842C72.6988 12.9762 72.5708 12.4482 72.3148 12.0002C72.0695 11.5522 71.7442 11.2108 71.3388 10.9762C70.9335 10.7415 70.4962 10.6242 70.0268 10.6242C69.5575 10.6242 69.1202 10.7415 68.7148 10.9762C68.3095 11.2002 67.9788 11.5362 67.7228 11.9842C67.4775 12.4215 67.3548 12.9442 67.3548 13.5522C67.3548 14.1602 67.4775 14.6935 67.7228 15.1522C67.9788 15.6108 68.3095 15.9628 68.7148 16.2082C69.1308 16.4428 69.5682 16.5602 70.0268 16.5602C70.4962 16.5602 70.9335 16.4428 71.3388 16.2082C71.7442 15.9735 72.0695 15.6322 72.3148 15.1842C72.5708 14.7255 72.6988 14.1922 72.6988 13.5842Z" fill="#FAFAFA"/>
<path d="M77.8626 8.01618C77.5319 8.01618 77.2546 7.90418 77.0306 7.68018C76.8066 7.45618 76.6946 7.17884 76.6946 6.84818C76.6946 6.51751 76.8066 6.24018 77.0306 6.01618C77.2546 5.79218 77.5319 5.68018 77.8626 5.68018C78.1826 5.68018 78.4546 5.79218 78.6786 6.01618C78.9026 6.24018 79.0146 6.51751 79.0146 6.84818C79.0146 7.17884 78.9026 7.45618 78.6786 7.68018C78.4546 7.90418 78.1826 8.01618 77.8626 8.01618ZM78.7586 9.18418V18.0002H76.9346V9.18418H78.7586Z" fill="#FAFAFA"/>
<path d="M92.0136 15.7282H87.3576L86.5576 18.0002H84.6536L88.6376 6.86418H90.7496L94.7336 18.0002H92.8136L92.0136 15.7282ZM91.5016 14.2402L89.6936 9.07218L87.8696 14.2402H91.5016Z" fill="#FAFAFA"/>
<path d="M98.2898 10.4642C98.5565 10.0162 98.9085 9.66951 99.3458 9.42418C99.7938 9.16818 100.322 9.04018 100.93 9.04018V10.9282H100.466C99.7512 10.9282 99.2072 11.1095 98.8338 11.4722C98.4712 11.8348 98.2898 12.4642 98.2898 13.3602V18.0002H96.4658V9.18418H98.2898V10.4642Z" fill="#FAFAFA"/>
<path d="M101.998 13.5522C101.998 12.6668 102.18 11.8828 102.542 11.2002C102.916 10.5175 103.417 9.98951 104.046 9.61618C104.686 9.23218 105.39 9.04018 106.158 9.04018C106.852 9.04018 107.454 9.17884 107.966 9.45618C108.489 9.72284 108.905 10.0588 109.214 10.4642V9.18418H111.054V18.0002H109.214V16.6882C108.905 17.1042 108.484 17.4508 107.95 17.7282C107.417 18.0055 106.809 18.1442 106.126 18.1442C105.369 18.1442 104.676 17.9522 104.046 17.5682C103.417 17.1735 102.916 16.6295 102.542 15.9362C102.18 15.2322 101.998 14.4375 101.998 13.5522ZM109.214 13.5842C109.214 12.9762 109.086 12.4482 108.83 12.0002C108.585 11.5522 108.26 11.2108 107.854 10.9762C107.449 10.7415 107.012 10.6242 106.542 10.6242C106.073 10.6242 105.636 10.7415 105.23 10.9762C104.825 11.2002 104.494 11.5362 104.238 11.9842C103.993 12.4215 103.87 12.9442 103.87 13.5522C103.87 14.1602 103.993 14.6935 104.238 15.1522C104.494 15.6108 104.825 15.9628 105.23 16.2082C105.646 16.4428 106.084 16.5602 106.542 16.5602C107.012 16.5602 107.449 16.4428 107.854 16.2082C108.26 15.9735 108.585 15.6322 108.83 15.1842C109.086 14.7255 109.214 14.1922 109.214 13.5842Z" fill="#FAFAFA"/>
<path d="M115.274 10.4962C115.584 10.0695 116.005 9.72284 116.538 9.45618C117.082 9.17884 117.685 9.04018 118.346 9.04018C119.125 9.04018 119.829 9.22684 120.458 9.60018C121.088 9.97351 121.584 10.5068 121.946 11.2002C122.309 11.8828 122.49 12.6668 122.49 13.5522C122.49 14.4375 122.309 15.2322 121.946 15.9362C121.584 16.6295 121.082 17.1735 120.442 17.5682C119.813 17.9522 119.114 18.1442 118.346 18.1442C117.664 18.1442 117.056 18.0108 116.522 17.7442C116 17.4775 115.584 17.1362 115.274 16.7202V18.0002H113.45V6.16018H115.274V10.4962ZM120.634 13.5522C120.634 12.9442 120.506 12.4215 120.25 11.9842C120.005 11.5362 119.674 11.2002 119.258 10.9762C118.853 10.7415 118.416 10.6242 117.946 10.6242C117.488 10.6242 117.05 10.7415 116.634 10.9762C116.229 11.2108 115.898 11.5522 115.642 12.0002C115.397 12.4482 115.274 12.9762 115.274 13.5842C115.274 14.1922 115.397 14.7255 115.642 15.1842C115.898 15.6322 116.229 15.9735 116.634 16.2082C117.05 16.4428 117.488 16.5602 117.946 16.5602C118.416 16.5602 118.853 16.4428 119.258 16.2082C119.674 15.9628 120.005 15.6108 120.25 15.1522C120.506 14.6935 120.634 14.1602 120.634 13.5522Z" fill="#FAFAFA"/>
<path d="M125.222 8.01618C124.891 8.01618 124.614 7.90418 124.39 7.68018C124.166 7.45618 124.054 7.17884 124.054 6.84818C124.054 6.51751 124.166 6.24018 124.39 6.01618C124.614 5.79218 124.891 5.68018 125.222 5.68018C125.542 5.68018 125.814 5.79218 126.038 6.01618C126.262 6.24018 126.374 6.51751 126.374 6.84818C126.374 7.17884 126.262 7.45618 126.038 7.68018C125.814 7.90418 125.542 8.01618 125.222 8.01618ZM126.118 9.18418V18.0002H124.294V9.18418H126.118Z" fill="#FAFAFA"/>
<path d="M127.905 13.5522C127.905 12.6668 128.086 11.8828 128.449 11.2002C128.822 10.5175 129.323 9.98951 129.953 9.61618C130.593 9.23218 131.297 9.04018 132.065 9.04018C132.758 9.04018 133.361 9.17884 133.873 9.45618C134.395 9.72284 134.811 10.0588 135.121 10.4642V9.18418H136.961V18.0002H135.121V16.6882C134.811 17.1042 134.39 17.4508 133.857 17.7282C133.323 18.0055 132.715 18.1442 132.033 18.1442C131.275 18.1442 130.582 17.9522 129.953 17.5682C129.323 17.1735 128.822 16.6295 128.449 15.9362C128.086 15.2322 127.905 14.4375 127.905 13.5522ZM135.121 13.5842C135.121 12.9762 134.993 12.4482 134.737 12.0002C134.491 11.5522 134.166 11.2108 133.761 10.9762C133.355 10.7415 132.918 10.6242 132.449 10.6242C131.979 10.6242 131.542 10.7415 131.137 10.9762C130.731 11.2002 130.401 11.5362 130.145 11.9842C129.899 12.4215 129.777 12.9442 129.777 13.5522C129.777 14.1602 129.899 14.6935 130.145 15.1522C130.401 15.6108 130.731 15.9628 131.137 16.2082C131.553 16.4428 131.99 16.5602 132.449 16.5602C132.918 16.5602 133.355 16.4428 133.761 16.2082C134.166 15.9735 134.491 15.6322 134.737 15.1842C134.993 14.7255 135.121 14.1922 135.121 13.5842Z" fill="#FAFAFA"/>
<path d="M145.513 15.8082L143.577 20.2242H142.393L143.529 15.8082H145.513Z" fill="#FAFAFA"/>
<path d="M154.895 6.88018C156.079 6.88018 157.113 7.10951 157.999 7.56818C158.895 8.01618 159.583 8.66684 160.063 9.52018C160.553 10.3628 160.799 11.3495 160.799 12.4802C160.799 13.6108 160.553 14.5922 160.063 15.4242C159.583 16.2562 158.895 16.8962 157.999 17.3442C157.113 17.7815 156.079 18.0002 154.895 18.0002H151.263V6.88018H154.895ZM154.895 16.5122C156.196 16.5122 157.193 16.1602 157.887 15.4562C158.58 14.7522 158.927 13.7602 158.927 12.4802C158.927 11.1895 158.58 10.1815 157.887 9.45618C157.193 8.73084 156.196 8.36818 154.895 8.36818H153.087V16.5122H154.895Z" fill="#FAFAFA"/>
<path d="M161.998 13.5522C161.998 12.6668 162.18 11.8828 162.542 11.2002C162.916 10.5175 163.417 9.98951 164.046 9.61618C164.686 9.23218 165.39 9.04018 166.158 9.04018C166.852 9.04018 167.454 9.17884 167.966 9.45618C168.489 9.72284 168.905 10.0588 169.214 10.4642V9.18418H171.054V18.0002H169.214V16.6882C168.905 17.1042 168.484 17.4508 167.95 17.7282C167.417 18.0055 166.809 18.1442 166.126 18.1442C165.369 18.1442 164.676 17.9522 164.046 17.5682C163.417 17.1735 162.916 16.6295 162.542 15.9362C162.18 15.2322 161.998 14.4375 161.998 13.5522ZM169.214 13.5842C169.214 12.9762 169.086 12.4482 168.83 12.0002C168.585 11.5522 168.26 11.2108 167.854 10.9762C167.449 10.7415 167.012 10.6242 166.542 10.6242C166.073 10.6242 165.636 10.7415 165.23 10.9762C164.825 11.2002 164.494 11.5362 164.238 11.9842C163.993 12.4215 163.87 12.9442 163.87 13.5522C163.87 14.1602 163.993 14.6935 164.238 15.1522C164.494 15.6108 164.825 15.9628 165.23 16.2082C165.646 16.4428 166.084 16.5602 166.542 16.5602C167.012 16.5602 167.449 16.4428 167.854 16.2082C168.26 15.9735 168.585 15.6322 168.83 15.1842C169.086 14.7255 169.214 14.1922 169.214 13.5842Z" fill="#FAFAFA"/>
<path d="M184.122 9.04018C184.816 9.04018 185.434 9.18418 185.978 9.47218C186.533 9.76018 186.965 10.1868 187.274 10.7522C187.594 11.3175 187.754 12.0002 187.754 12.8002V18.0002H185.946V13.0722C185.946 12.2828 185.749 11.6802 185.354 11.2642C184.96 10.8375 184.421 10.6242 183.738 10.6242C183.056 10.6242 182.512 10.8375 182.106 11.2642C181.712 11.6802 181.514 12.2828 181.514 13.0722V18.0002H179.706V13.0722C179.706 12.2828 179.509 11.6802 179.114 11.2642C178.72 10.8375 178.181 10.6242 177.498 10.6242C176.816 10.6242 176.272 10.8375 175.866 11.2642C175.472 11.6802 175.274 12.2828 175.274 13.0722V18.0002H173.45V9.18418H175.274V10.1922C175.573 9.82951 175.952 9.54684 176.41 9.34418C176.869 9.14151 177.36 9.04018 177.882 9.04018C178.586 9.04018 179.216 9.18951 179.77 9.48818C180.325 9.78684 180.752 10.2188 181.05 10.7842C181.317 10.2508 181.733 9.82951 182.298 9.52018C182.864 9.20018 183.472 9.04018 184.122 9.04018Z" fill="#FAFAFA"/>
<path d="M200.747 9.04018C201.441 9.04018 202.059 9.18418 202.603 9.47218C203.158 9.76018 203.59 10.1868 203.899 10.7522C204.219 11.3175 204.379 12.0002 204.379 12.8002V18.0002H202.571V13.0722C202.571 12.2828 202.374 11.6802 201.979 11.2642C201.585 10.8375 201.046 10.6242 200.363 10.6242C199.681 10.6242 199.137 10.8375 198.731 11.2642C198.337 11.6802 198.139 12.2828 198.139 13.0722V18.0002H196.331V13.0722C196.331 12.2828 196.134 11.6802 195.739 11.2642C195.345 10.8375 194.806 10.6242 194.123 10.6242C193.441 10.6242 192.897 10.8375 192.491 11.2642C192.097 11.6802 191.899 12.2828 191.899 13.0722V18.0002H190.075V9.18418H191.899V10.1922C192.198 9.82951 192.577 9.54684 193.035 9.34418C193.494 9.14151 193.985 9.04018 194.507 9.04018C195.211 9.04018 195.841 9.18951 196.395 9.48818C196.95 9.78684 197.377 10.2188 197.675 10.7842C197.942 10.2508 198.358 9.82951 198.923 9.52018C199.489 9.20018 200.097 9.04018 200.747 9.04018Z" fill="#FAFAFA"/>
<path d="M206.092 13.5522C206.092 12.6668 206.274 11.8828 206.636 11.2002C207.01 10.5175 207.511 9.98951 208.14 9.61618C208.78 9.23218 209.484 9.04018 210.252 9.04018C210.946 9.04018 211.548 9.17884 212.06 9.45618C212.583 9.72284 212.999 10.0588 213.308 10.4642V9.18418H215.148V18.0002H213.308V16.6882C212.999 17.1042 212.578 17.4508 212.044 17.7282C211.511 18.0055 210.903 18.1442 210.22 18.1442C209.463 18.1442 208.77 17.9522 208.14 17.5682C207.511 17.1735 207.01 16.6295 206.636 15.9362C206.274 15.2322 206.092 14.4375 206.092 13.5522ZM213.308 13.5842C213.308 12.9762 213.18 12.4482 212.924 12.0002C212.679 11.5522 212.354 11.2108 211.948 10.9762C211.543 10.7415 211.106 10.6242 210.636 10.6242C210.167 10.6242 209.73 10.7415 209.324 10.9762C208.919 11.2002 208.588 11.5362 208.332 11.9842C208.087 12.4215 207.964 12.9442 207.964 13.5522C207.964 14.1602 208.087 14.6935 208.332 15.1522C208.588 15.6108 208.919 15.9628 209.324 16.2082C209.74 16.4428 210.178 16.5602 210.636 16.5602C211.106 16.5602 211.543 16.4428 211.948 16.2082C212.354 15.9735 212.679 15.6322 212.924 15.1842C213.18 14.7255 213.308 14.1922 213.308 13.5842Z" fill="#FAFAFA"/>
<path fill-rule="evenodd" clip-rule="evenodd" d="M12.0004 7.93994C10.6915 7.93994 9.63037 9.00103 9.63037 10.3099C9.63037 11.6189 10.6915 12.6799 12.0004 12.6799C13.3093 12.6799 14.3704 11.6189 14.3704 10.3099C14.3704 9.00103 13.3093 7.93994 12.0004 7.93994ZM8.13037 10.3099C8.13037 8.1726 9.86303 6.43994 12.0004 6.43994C14.1377 6.43994 15.8704 8.1726 15.8704 10.3099C15.8704 12.4473 14.1377 14.1799 12.0004 14.1799C9.86303 14.1799 8.13037 12.4473 8.13037 10.3099Z" fill="#FAFAFA"/>
<path fill-rule="evenodd" clip-rule="evenodd" d="M12.0034 2.75C8.58671 2.74769 5.24485 4.73032 4.35162 8.65591C3.29456 13.3261 6.18829 17.3762 8.91039 19.9997C10.6409 21.661 13.3609 21.659 15.0794 20.0004L15.0807 19.999C17.8127 17.3756 20.7059 13.3354 19.6487 8.6656L19.6487 8.66556C18.7602 4.73971 15.4204 2.75231 12.0034 2.75ZM21.1117 8.33441C20.0402 3.60029 15.985 1.25269 12.0045 1.25C8.02383 1.24731 3.96581 3.58953 2.88889 8.32364L2.88871 8.32441C1.64601 13.8139 5.07199 18.3836 7.86975 21.08L7.87069 21.0809C10.1801 23.2989 13.8193 23.3008 16.1207 21.08C18.9285 18.3834 22.3544 13.8239 21.1117 8.33441Z" fill="#FAFAFA"/>
</svg>
